<svg width="18" height="21" viewBox="0 0 18 21" fill="none" xmlns="http://www.w3.org/2000/svg">
<path fill-rule="evenodd" clip-rule="evenodd" d="M8.62761 20.7196L8.63121 20.7208C8.86761 20.824 8.99961 20.8 8.99961 20.8C8.99961 20.8 9.13161 20.824 9.36921 20.7208L9.37161 20.7196L9.37881 20.716L9.40041 20.7064C9.51432 20.6535 9.62676 20.5975 9.73761 20.5384C9.96081 20.4232 10.2728 20.2504 10.646 20.0188C11.39 19.558 12.38 18.8596 13.3748 17.9008C15.362 15.9856 17.3996 12.9916 17.3996 8.80002C17.3996 7.69692 17.1823 6.60462 16.7602 5.58548C16.3381 4.56635 15.7193 3.64034 14.9393 2.86033C14.1593 2.08032 13.2333 1.46158 12.2141 1.03944C11.195 0.617297 10.1027 0.400024 8.99961 0.400024C7.89651 0.400024 6.8042 0.617297 5.78507 1.03944C4.76593 1.46158 3.83992 2.08032 3.05991 2.86033C2.2799 3.64034 1.66116 4.56635 1.23902 5.58548C0.816882 6.60462 0.599609 7.69692 0.599609 8.80002C0.599609 12.9904 2.63721 15.9856 4.62561 17.9008C5.45811 18.7004 6.37233 19.4103 7.35321 20.0188C7.73312 20.2547 8.12395 20.4726 8.52441 20.6716L8.59881 20.7064L8.62041 20.716L8.62761 20.7196ZM8.99961 11.5C9.71569 11.5 10.4024 11.2156 10.9088 10.7092C11.4151 10.2029 11.6996 9.51611 11.6996 8.80002C11.6996 8.08394 11.4151 7.39718 10.9088 6.89084C10.4024 6.38449 9.71569 6.10002 8.99961 6.10002C8.28352 6.10002 7.59677 6.38449 7.09042 6.89084C6.58407 7.39718 6.29961 8.08394 6.29961 8.80002C6.29961 9.51611 6.58407 10.2029 7.09042 10.7092C7.59677 11.2156 8.28352 11.5 8.99961 11.5Z" fill="#FFB1C8"/>
</svg>
