<svg width="21" height="12" viewBox="0 0 21 12" fill="none" xmlns="http://www.w3.org/2000/svg">
<g clip-path="url(#clip0_46_1406)">
<path d="M6.01361 10.155C5.44981 9.80022 4.91258 9.40488 4.40618 8.97211L4.40446 8.97063C3.28181 8.00234 1.90002 6.44477 1.90002 4.50001V4.49996C1.90009 3.83824 2.10529 3.19282 2.48737 2.65256C2.86945 2.11229 3.40962 1.70377 4.0335 1.48322C4.65738 1.26268 5.33429 1.24097 5.97103 1.42108C6.42685 1.55002 6.84604 1.77785 7.20003 2.08572C7.55402 1.77785 7.9732 1.55002 8.42902 1.42108C9.06575 1.24097 9.74266 1.26268 10.3665 1.48322C10.9904 1.70377 11.5306 2.11229 11.9127 2.65256C12.2948 3.19282 12.5 3.83824 12.5 4.49996V4.50001C12.5 6.44472 11.1189 8.00228 9.99549 8.97072L9.99383 8.97215L9.99382 8.97215C9.27422 9.58699 8.49296 10.1258 7.66252 10.5799L7.65553 10.5837L7.54672 10.649H7.50714C7.4089 10.6829 7.30541 10.7004 7.20082 10.7006C7.04732 10.7008 6.89609 10.6636 6.76024 10.5921L6.96302 10.2066L6.99182 10.149L6.95969 10.2026L6.75595 10.5897L6.74455 10.5837L6.73844 10.5804L6.73846 10.5804C6.49231 10.4465 6.25056 10.3046 6.01361 10.155ZM6.01361 10.155C6.0135 10.1549 6.01339 10.1549 6.01328 10.1548L6.28022 9.73201L6.01395 10.1552C6.01383 10.1551 6.01372 10.1551 6.01361 10.155Z" fill="#FF1659" stroke="white"/>
</g>
<g clip-path="url(#clip1_46_1406)">
<path d="M13.2136 10.155C12.6498 9.80022 12.1126 9.40488 11.6062 8.97211L11.6045 8.97063C10.4818 8.00234 9.10004 6.44477 9.10004 4.50001V4.49996C9.1001 3.83824 9.3053 3.19282 9.68738 2.65256C10.0695 2.11229 10.6096 1.70377 11.2335 1.48322C11.8574 1.26268 12.5343 1.24097 13.171 1.42108C13.6269 1.55002 14.046 1.77785 14.4 2.08572C14.754 1.77785 15.1732 1.55002 15.629 1.42108C16.2658 1.24097 16.9427 1.26268 17.5666 1.48322C18.1904 1.70377 18.7306 2.11229 19.1127 2.65256C19.4948 3.19282 19.7 3.83824 19.7 4.49996V4.50001C19.7 6.44472 18.3189 8.00228 17.1955 8.97072L17.1938 8.97215L17.1938 8.97215C16.4742 9.58699 15.693 10.1258 14.8625 10.5799L14.8555 10.5837L14.7467 10.649H14.7072C14.6089 10.6829 14.5054 10.7004 14.4008 10.7006C14.2473 10.7008 14.0961 10.6636 13.9603 10.5921L14.163 10.2066L14.1918 10.149L14.1597 10.2026L13.956 10.5897L13.9446 10.5837L13.9385 10.5804L13.9385 10.5804C13.6923 10.4465 13.4506 10.3046 13.2136 10.155ZM13.2136 10.155C13.2135 10.1549 13.2134 10.1549 13.2133 10.1548L13.4802 9.73201L13.214 10.1552C13.2138 10.1551 13.2137 10.1551 13.2136 10.155Z" fill="#FF1659" stroke="white"/>
</g>
<defs>
<clipPath id="clip0_46_1406">
<rect width="12" height="12" fill="white" transform="translate(1.20001)"/>
</clipPath>
<clipPath id="clip1_46_1406">
<rect width="12" height="12" fill="white" transform="translate(8.40002)"/>
</clipPath>
</defs>
</svg>
