<svg width="16" height="16" viewBox="0 0 16 16" fill="none" xmlns="http://www.w3.org/2000/svg">
<path d="M1.02679 9.04909L12.4961 9.04909L7.48532 14.1944C7.08487 14.6056 7.08487 15.2804 7.48532 15.6916C7.88577 16.1028 8.53265 16.1028 8.9331 15.6916L15.6997 8.74333C16.1001 8.33212 16.1001 7.66787 15.6997 7.25667L8.9331 0.3084C8.53265 -0.102804 7.88577 -0.102803 7.48532 0.3084C7.08487 0.719602 7.08487 1.38385 7.48532 1.79506L12.4961 6.94036L1.02679 6.94036C0.462056 6.94036 -7.5054e-07 7.41483 -6.99843e-07 7.99473C-6.49147e-07 8.57463 0.462057 9.04909 1.02679 9.04909Z" fill="#F6F7FC"/>
</svg>
