<svg width="56" height="56" viewBox="0 0 56 56" fill="none" xmlns="http://www.w3.org/2000/svg">
<g filter="url(#filter0_d_60_1806)">
<rect x="10" y="10" width="32" height="32" rx="16" fill="white" fill-opacity="0.2" shape-rendering="crispEdges"/>
<path d="M26 28C26.5304 28 27.0391 27.7893 27.4142 27.4142C27.7893 27.0391 28 26.5304 28 26C28 25.4696 27.7893 24.9609 27.4142 24.5858C27.0391 24.2107 26.5304 24 26 24C25.4696 24 24.9609 24.2107 24.5858 24.5858C24.2107 24.9609 24 25.4696 24 26C24 26.5304 24.2107 27.0391 24.5858 27.4142C24.9609 27.7893 25.4696 28 26 28Z" fill="white"/>
<path fill-rule="evenodd" clip-rule="evenodd" d="M18.5315 26.472C18.414 26.1667 18.414 25.8286 18.5315 25.5232C19.1133 24.0148 20.1383 22.718 21.4715 21.8035C22.8047 20.889 24.3836 20.3997 26.0003 20.4C29.4059 20.4 32.3147 22.528 33.4691 25.528C33.5867 25.8328 33.5859 26.1712 33.4691 26.4768C32.8873 27.9852 31.8623 29.2821 30.5291 30.1966C29.1959 31.1111 27.617 31.6004 26.0003 31.6C22.5947 31.6 19.6859 29.472 18.5315 26.472ZM29.2003 26C29.2003 26.8487 28.8632 27.6627 28.263 28.2628C27.6629 28.8629 26.849 29.2 26.0003 29.2C25.1516 29.2 24.3377 28.8629 23.7376 28.2628C23.1374 27.6627 22.8003 26.8487 22.8003 26C22.8003 25.1513 23.1374 24.3374 23.7376 23.7373C24.3377 23.1372 25.1516 22.8 26.0003 22.8C26.849 22.8 27.6629 23.1372 28.263 23.7373C28.8632 24.3374 29.2003 25.1513 29.2003 26Z" fill="white"/>
</g>
<defs>
<filter id="filter0_d_60_1806" x="0" y="0" width="56" height="56" filterUnits="userSpaceOnUse" color-interpolation-filters="sRGB">
<feFlood flood-opacity="0" result="BackgroundImageFix"/>
<feColorMatrix in="SourceAlpha" type="matrix" values="0 0 0 0 0 0 0 0 0 0 0 0 0 0 0 0 0 0 127 0" result="hardAlpha"/>
<feOffset dx="2" dy="2"/>
<feGaussianBlur stdDeviation="6"/>
<feComposite in2="hardAlpha" operator="out"/>
<feColorMatrix type="matrix" values="0 0 0 0 0.249604 0 0 0 0 0.196181 0 0 0 0 0.520833 0 0 0 0.12 0"/>
<feBlend mode="normal" in2="BackgroundImageFix" result="effect1_dropShadow_60_1806"/>
<feBlend mode="normal" in="SourceGraphic" in2="effect1_dropShadow_60_1806" result="shape"/>
</filter>
</defs>
</svg>
