<svg width="167" height="56" viewBox="0 0 167 56" fill="none" xmlns="http://www.w3.org/2000/svg">
<path d="M6.44151 36.7442C6.05333 36.7442 5.75249 36.6274 5.539 36.3938C5.3255 36.1602 5.21875 35.8487 5.21875 35.4594V17.0348C5.21875 16.626 5.3255 16.3145 5.539 16.1004C5.7719 15.8668 6.08244 15.75 6.47062 15.75C6.81998 15.75 7.0917 15.8181 7.28579 15.9544C7.49929 16.0907 7.69338 16.3242 7.86806 16.6552L15.6704 31.3423H14.7679L22.5702 16.6552C22.7449 16.3242 22.9293 16.0907 23.1234 15.9544C23.3175 15.8181 23.5892 15.75 23.9386 15.75C24.3267 15.75 24.6276 15.8668 24.8411 16.1004C25.0546 16.3145 25.1613 16.626 25.1613 17.0348V35.4594C25.1613 35.8487 25.0546 36.1602 24.8411 36.3938C24.647 36.6274 24.3462 36.7442 23.9386 36.7442C23.531 36.7442 23.2204 36.6274 23.0069 36.3938C22.8129 36.1602 22.7158 35.8487 22.7158 35.4594V19.7211H23.3563L16.3691 32.8315C16.2139 33.0845 16.0489 33.2792 15.8742 33.4155C15.7189 33.5323 15.4957 33.5907 15.2046 33.5907C14.9329 33.5907 14.7 33.5225 14.5059 33.3863C14.3312 33.25 14.1759 33.0651 14.0401 32.8315L6.96554 19.6919H7.66426V35.4594C7.66426 35.8487 7.55751 36.1602 7.34402 36.3938C7.14993 36.6274 6.84909 36.7442 6.44151 36.7442Z" fill="black"/>
<path d="M35.7701 36.8026C34.2369 36.8026 32.9171 36.5106 31.8107 35.9266C30.7239 35.3231 29.8796 34.4764 29.2779 33.3863C28.6762 32.2767 28.3754 30.9725 28.3754 29.4736C28.3754 27.9942 28.6665 26.6997 29.2488 25.5901C29.8505 24.4805 30.6656 23.6143 31.6943 22.9914C32.7424 22.3685 33.936 22.057 35.2752 22.057C36.2263 22.057 37.0802 22.2225 37.8372 22.5534C38.6135 22.8648 39.2734 23.3223 39.8169 23.9258C40.3603 24.5292 40.7679 25.2689 41.0396 26.1449C41.3308 27.0014 41.4763 27.9747 41.4763 29.0648C41.4763 29.3763 41.3793 29.6196 41.1852 29.7948C41.0105 29.9505 40.7485 30.0284 40.3992 30.0284H30.4424V28.3348H39.7296L39.2346 28.7436C39.2346 27.7314 39.0794 26.8749 38.7688 26.1741C38.4777 25.4538 38.041 24.9088 37.4587 24.5389C36.8959 24.1691 36.1874 23.9841 35.3335 23.9841C34.4018 23.9841 33.6061 24.208 32.9462 24.6557C32.2863 25.084 31.7816 25.6972 31.4323 26.4953C31.0829 27.2739 30.9082 28.1791 30.9082 29.2108V29.386C30.9082 31.1379 31.3255 32.4616 32.1601 33.3571C32.9947 34.2525 34.198 34.7002 35.7701 34.7002C36.3912 34.7002 37.022 34.6224 37.6625 34.4666C38.3224 34.3109 38.9532 34.0286 39.5549 33.6199C39.846 33.4447 40.108 33.3668 40.3409 33.3863C40.5932 33.3863 40.797 33.4641 40.9523 33.6199C41.1076 33.7561 41.2046 33.9313 41.2434 34.1454C41.2823 34.3401 41.2531 34.5542 41.1561 34.7878C41.0591 35.0214 40.8747 35.2258 40.6029 35.401C39.9625 35.8487 39.1958 36.1991 38.303 36.4522C37.4296 36.6858 36.5853 36.8026 35.7701 36.8026Z" fill="black"/>
<path d="M45.5574 36.7442C45.111 36.7442 44.7714 36.6274 44.5385 36.3938C44.3056 36.1602 44.1891 35.8195 44.1891 35.3718V23.4586C44.1891 23.0108 44.3056 22.6799 44.5385 22.4658C44.7714 22.2322 45.0916 22.1154 45.4992 22.1154C45.9068 22.1154 46.2173 22.2322 46.4308 22.4658C46.6637 22.6799 46.7802 23.0108 46.7802 23.4586V25.7069H46.4891C46.7996 24.5389 47.3819 23.6532 48.2359 23.0498C49.0898 22.4463 50.167 22.1057 51.4674 22.0278C51.778 22.0083 52.0303 22.0862 52.2244 22.2614C52.4185 22.4171 52.5252 22.6897 52.5446 23.079C52.564 23.4488 52.4767 23.7506 52.2826 23.9841C52.0885 24.1983 51.7877 24.3248 51.3801 24.3637L50.856 24.3929C49.5751 24.5292 48.5852 24.9477 47.8865 25.6485C47.2072 26.3493 46.8675 27.3128 46.8675 28.5392V35.3718C46.8675 35.8195 46.7511 36.1602 46.5182 36.3938C46.3047 36.6274 45.9844 36.7442 45.5574 36.7442Z" fill="black"/>
<path d="M55.6083 36.7442C55.1619 36.7442 54.8223 36.6274 54.5894 36.3938C54.3565 36.1602 54.24 35.8195 54.24 35.3718V23.4586C54.24 23.0108 54.3565 22.6799 54.5894 22.4658C54.8223 22.2322 55.1425 22.1154 55.5501 22.1154C55.9577 22.1154 56.2682 22.2322 56.4817 22.4658C56.7146 22.6799 56.8311 23.0108 56.8311 23.4586V25.7069H56.54C56.8505 24.5389 57.4328 23.6532 58.2867 23.0498C59.1407 22.4463 60.2179 22.1057 61.5183 22.0278C61.8289 22.0083 62.0812 22.0862 62.2753 22.2614C62.4694 22.4171 62.5761 22.6897 62.5955 23.079C62.6149 23.4488 62.5276 23.7506 62.3335 23.9841C62.1394 24.1983 61.8386 24.3248 61.431 24.3637L60.9069 24.3929C59.626 24.5292 58.6361 24.9477 57.9374 25.6485C57.2581 26.3493 56.9184 27.3128 56.9184 28.5392V35.3718C56.9184 35.8195 56.802 36.1602 56.5691 36.3938C56.3556 36.6274 56.0353 36.7442 55.6083 36.7442Z" fill="black"/>
<path d="M68.4329 42C68.1224 42 67.8604 41.9124 67.6469 41.7372C67.4528 41.5815 67.3363 41.3576 67.2975 41.0656C67.2781 40.7931 67.3363 40.5011 67.4722 40.1897L69.4519 35.693V36.8026L63.9495 23.9549C63.8136 23.624 63.7651 23.3223 63.8039 23.0498C63.8428 22.7773 63.9689 22.5534 64.1824 22.3782C64.4153 22.203 64.7259 22.1154 65.114 22.1154C65.444 22.1154 65.706 22.1933 65.9001 22.349C66.0942 22.5047 66.2786 22.7773 66.4532 23.1666L71.024 34.4666H70.2089L74.867 23.1666C75.0222 22.7773 75.2066 22.5047 75.4201 22.349C75.6336 22.1933 75.9248 22.1154 76.2935 22.1154C76.6235 22.1154 76.8758 22.203 77.0505 22.3782C77.2446 22.5534 77.361 22.7773 77.3998 23.0498C77.4386 23.3223 77.3804 23.6143 77.2251 23.9258L69.8886 40.9488C69.6945 41.3576 69.4907 41.6301 69.2772 41.7664C69.0831 41.9221 68.8017 42 68.4329 42Z" fill="black"/>
<path d="M84.6622 36.6921C84.0042 36.6921 83.501 36.5086 83.1527 36.1417C82.8043 35.7748 82.6301 35.2631 82.6301 34.6066V17.8355C82.6301 17.179 82.814 16.6672 83.1817 16.3003C83.5688 15.9334 84.0913 15.75 84.7493 15.75C85.3299 15.75 85.7847 15.8659 86.1137 16.0976C86.4621 16.31 86.7814 16.6866 87.0717 17.2272L93.7776 29.4507H92.7906L99.4965 17.2272C99.7868 16.6866 100.096 16.31 100.425 16.0976C100.774 15.8659 101.229 15.75 101.79 15.75C102.448 15.75 102.951 15.9334 103.299 16.3003C103.667 16.6672 103.851 17.179 103.851 17.8355V34.6066C103.851 35.2631 103.677 35.7748 103.328 36.1417C102.98 36.5086 102.477 36.6921 101.819 36.6921C101.161 36.6921 100.648 36.5086 100.28 36.1417C99.932 35.7748 99.7578 35.2631 99.7578 34.6066V22.8755H100.396L94.9969 32.521C94.7646 32.8879 94.513 33.1679 94.2421 33.361C93.9905 33.5348 93.6518 33.6217 93.2261 33.6217C92.8003 33.6217 92.4519 33.5252 92.181 33.3321C91.91 33.139 91.6681 32.8686 91.4552 32.521L85.9976 22.8466H86.6943V34.6066C86.6943 35.2631 86.5201 35.7748 86.1718 36.1417C85.8428 36.5086 85.3396 36.6921 84.6622 36.6921Z" fill="#C70039"/>
<path d="M111.863 36.75C110.818 36.75 109.879 36.5472 109.047 36.1417C108.214 35.7362 107.566 35.1859 107.102 34.4907C106.637 33.7955 106.405 33.0134 106.405 32.1445C106.405 31.1017 106.676 30.281 107.218 29.6824C107.76 29.0645 108.64 28.63 109.86 28.379C111.079 28.1086 112.695 27.9734 114.708 27.9734H116.246V30.2328H114.737C113.75 30.2328 112.946 30.2907 112.327 30.4066C111.727 30.5031 111.292 30.6769 111.021 30.9279C110.769 31.179 110.643 31.5266 110.643 31.9707C110.643 32.5114 110.827 32.9555 111.195 33.3031C111.582 33.6507 112.134 33.8245 112.85 33.8245C113.411 33.8245 113.904 33.699 114.33 33.4479C114.775 33.1776 115.124 32.8203 115.375 32.3762C115.627 31.9128 115.753 31.3914 115.753 30.8121V27.481C115.753 26.6314 115.559 26.0328 115.172 25.6852C114.785 25.3183 114.127 25.1348 113.198 25.1348C112.675 25.1348 112.105 25.2024 111.485 25.3376C110.885 25.4534 110.218 25.6562 109.482 25.9459C109.056 26.139 108.679 26.1872 108.35 26.0907C108.021 25.9748 107.769 25.7817 107.595 25.5114C107.421 25.2217 107.334 24.9128 107.334 24.5845C107.334 24.2369 107.431 23.9086 107.624 23.5997C107.818 23.2714 108.137 23.03 108.582 22.8755C109.492 22.5086 110.343 22.2576 111.137 22.1224C111.95 21.9872 112.695 21.9197 113.372 21.9197C114.862 21.9197 116.082 22.1417 117.03 22.5859C117.998 23.0107 118.723 23.6769 119.207 24.5845C119.691 25.4728 119.933 26.6217 119.933 28.0314V34.4617C119.933 35.1762 119.759 35.7266 119.41 36.1128C119.062 36.499 118.559 36.6921 117.901 36.6921C117.243 36.6921 116.73 36.499 116.362 36.1128C116.014 35.7266 115.84 35.1762 115.84 34.4617V33.39L116.043 33.5638C115.927 34.2203 115.675 34.79 115.288 35.2728C114.92 35.7362 114.446 36.1031 113.866 36.3734C113.285 36.6245 112.617 36.75 111.863 36.75Z" fill="#C70039"/>
<path d="M129.618 36.75C128.283 36.75 127.161 36.5279 126.251 36.0838C125.361 35.6397 124.693 34.9928 124.248 34.1431C123.822 33.2934 123.609 32.2217 123.609 30.9279V25.4824H122.39C121.848 25.4824 121.422 25.3376 121.113 25.0479C120.822 24.7583 120.677 24.3624 120.677 23.8603C120.677 23.3197 120.822 22.9141 121.113 22.6438C121.422 22.3541 121.848 22.2093 122.39 22.2093H123.609V20.0079C123.609 19.2741 123.803 18.7238 124.19 18.3569C124.577 17.9707 125.119 17.7776 125.816 17.7776C126.532 17.7776 127.074 17.9707 127.441 18.3569C127.809 18.7238 127.993 19.2741 127.993 20.0079V22.2093H130.751C131.293 22.2093 131.709 22.3541 131.999 22.6438C132.289 22.9141 132.434 23.3197 132.434 23.8603C132.434 24.3624 132.289 24.7583 131.999 25.0479C131.709 25.3376 131.293 25.4824 130.751 25.4824H127.993V30.7541C127.993 31.5652 128.177 32.1734 128.544 32.579C128.931 32.9845 129.541 33.1872 130.373 33.1872C130.664 33.1872 130.934 33.1583 131.186 33.1003C131.438 33.0424 131.67 33.0038 131.883 32.9845C132.154 32.9652 132.376 33.0521 132.55 33.2452C132.725 33.419 132.812 33.8148 132.812 34.4328C132.812 34.8962 132.734 35.3017 132.58 35.6493C132.425 35.9969 132.154 36.2479 131.767 36.4024C131.515 36.499 131.167 36.5762 130.722 36.6341C130.296 36.7114 129.928 36.75 129.618 36.75Z" fill="#C70039"/>
<path d="M140.575 36.75C139.027 36.75 137.672 36.4507 136.511 35.8521C135.369 35.2341 134.488 34.3652 133.869 33.2452C133.25 32.1252 132.94 30.8024 132.94 29.2769C132.94 28.1376 133.114 27.1141 133.462 26.2066C133.811 25.299 134.314 24.5266 134.972 23.8893C135.649 23.2521 136.462 22.7693 137.411 22.441C138.359 22.0934 139.414 21.9197 140.575 21.9197C141.175 21.9197 141.813 21.9969 142.491 22.1514C143.168 22.2866 143.836 22.5279 144.494 22.8755C144.881 23.0493 145.142 23.3003 145.278 23.6286C145.432 23.9376 145.491 24.2659 145.452 24.6134C145.413 24.9417 145.287 25.241 145.074 25.5114C144.881 25.7624 144.629 25.9362 144.32 26.0328C144.01 26.11 143.662 26.0521 143.275 25.859C142.907 25.6466 142.52 25.4921 142.113 25.3955C141.726 25.299 141.359 25.2507 141.01 25.2507C140.43 25.2507 139.917 25.3472 139.472 25.5403C139.027 25.7141 138.649 25.9748 138.339 26.3224C138.049 26.6507 137.817 27.0659 137.643 27.5679C137.488 28.07 137.411 28.6493 137.411 29.3059C137.411 30.5803 137.72 31.5845 138.339 32.3183C138.978 33.0328 139.868 33.39 141.01 33.39C141.359 33.39 141.726 33.3514 142.113 33.2741C142.5 33.1776 142.887 33.0231 143.275 32.8107C143.662 32.6176 144.01 32.5693 144.32 32.6659C144.629 32.7624 144.871 32.9459 145.045 33.2162C145.239 33.4672 145.345 33.7666 145.365 34.1141C145.403 34.4424 145.345 34.7707 145.191 35.099C145.055 35.4079 144.803 35.6493 144.436 35.8231C143.778 36.1514 143.12 36.3831 142.462 36.5183C141.804 36.6728 141.175 36.75 140.575 36.75Z" fill="#C70039"/>
<path d="M149.125 36.6921C148.409 36.6921 147.858 36.499 147.471 36.1128C147.103 35.7266 146.919 35.1762 146.919 34.4617V17.9803C146.919 17.2466 147.103 16.6962 147.471 16.3293C147.858 15.9431 148.409 15.75 149.125 15.75C149.822 15.75 150.354 15.9431 150.722 16.3293C151.109 16.6962 151.302 17.2466 151.302 17.9803V24.8741H150.896C151.341 23.9279 151.999 23.2038 152.87 22.7017C153.76 22.1803 154.767 21.9197 155.889 21.9197C157.031 21.9197 157.97 22.1417 158.705 22.5859C159.441 23.0107 159.992 23.6672 160.36 24.5555C160.728 25.4245 160.911 26.5348 160.911 27.8866V34.4617C160.911 35.1762 160.718 35.7266 160.331 36.1128C159.963 36.499 159.421 36.6921 158.705 36.6921C158.008 36.6921 157.466 36.499 157.079 36.1128C156.712 35.7266 156.528 35.1762 156.528 34.4617V28.0893C156.528 27.1045 156.344 26.3997 155.976 25.9748C155.628 25.5307 155.086 25.3086 154.351 25.3086C153.422 25.3086 152.677 25.5983 152.115 26.1776C151.573 26.7569 151.302 27.5293 151.302 28.4948V34.4617C151.302 35.9486 150.577 36.6921 149.125 36.6921Z" fill="#C70039"/>
</svg>
