<svg width="20" height="18" viewBox="0 0 20 18" fill="none" xmlns="http://www.w3.org/2000/svg">
<path d="M11 12.9998V13.9998C11 14.7954 10.6839 15.5585 10.1213 16.1211C9.55871 16.6837 8.79565 16.9998 8 16.9998H4C3.20435 16.9998 2.44129 16.6837 1.87868 16.1211C1.31607 15.5585 1 14.7954 1 13.9998V3.99976C1 3.20411 1.31607 2.44104 1.87868 1.87844C2.44129 1.31583 3.20435 0.999756 4 0.999756H8C8.79565 0.999756 9.55871 1.31583 10.1213 1.87844C10.6839 2.44104 11 3.20411 11 3.99976V4.99976M15 12.9998L19 8.99975L15 12.9998ZM19 8.99975L15 4.99976L19 8.99975ZM19 8.99975H5H19Z" stroke="#FFB1C8" stroke-width="2" stroke-linecap="round" stroke-linejoin="round"/>
</svg>
