<svg width="20" height="19" viewBox="0 0 20 19" fill="none" xmlns="http://www.w3.org/2000/svg">
<path fill-rule="evenodd" clip-rule="evenodd" d="M8.18209 1.99403C8.98969 0.593626 11.0105 0.593626 11.8181 1.99403L19.3541 15.044C20.1617 16.4444 19.1501 18.194 17.5349 18.194H2.46409C0.847692 18.194 -0.162708 16.4444 0.646092 15.044L8.18209 1.99403ZM10.0001 5.00003C10.2388 5.00003 10.4677 5.09485 10.6365 5.26363C10.8053 5.43241 10.9001 5.66133 10.9001 5.90003V10.1C10.9001 10.3387 10.8053 10.5676 10.6365 10.7364C10.4677 10.9052 10.2388 11 10.0001 11C9.7614 11 9.53248 10.9052 9.3637 10.7364C9.19491 10.5676 9.10009 10.3387 9.10009 10.1V5.90003C9.10009 5.66133 9.19491 5.43241 9.3637 5.26363C9.53248 5.09485 9.7614 5.00003 10.0001 5.00003ZM10.0001 15.8C10.3184 15.8 10.6236 15.6736 10.8486 15.4486C11.0737 15.2235 11.2001 14.9183 11.2001 14.6C11.2001 14.2818 11.0737 13.9765 10.8486 13.7515C10.6236 13.5265 10.3184 13.4 10.0001 13.4C9.68183 13.4 9.37661 13.5265 9.15156 13.7515C8.92652 13.9765 8.80009 14.2818 8.80009 14.6C8.80009 14.9183 8.92652 15.2235 9.15156 15.4486C9.37661 15.6736 9.68183 15.8 10.0001 15.8Z" fill="#FFB1C8"/>
</svg>
