<svg width="14" height="13" viewBox="0 0 14 13" fill="none" xmlns="http://www.w3.org/2000/svg">
<path fill-rule="evenodd" clip-rule="evenodd" d="M5.78806 1.49598C6.32646 0.562376 7.67366 0.562376 8.21206 1.49598L13.2361 10.196C13.7745 11.1296 13.1001 12.296 12.0233 12.296H1.97606C0.898462 12.296 0.224862 11.1296 0.764062 10.196L5.78806 1.49598ZM7.00006 3.49998C7.15919 3.49998 7.3118 3.56319 7.42433 3.67571C7.53685 3.78823 7.60006 3.94085 7.60006 4.09998V6.89998C7.60006 7.05911 7.53685 7.21172 7.42433 7.32424C7.3118 7.43676 7.15919 7.49998 7.00006 7.49998C6.84093 7.49998 6.68832 7.43676 6.5758 7.32424C6.46328 7.21172 6.40006 7.05911 6.40006 6.89998V4.09998C6.40006 3.94085 6.46328 3.78823 6.5758 3.67571C6.68832 3.56319 6.84093 3.49998 7.00006 3.49998ZM7.00006 10.7C7.21223 10.7 7.41572 10.6157 7.56575 10.4657C7.71578 10.3156 7.80006 10.1121 7.80006 9.89998C7.80006 9.6878 7.71578 9.48432 7.56575 9.33429C7.41572 9.18426 7.21223 9.09998 7.00006 9.09998C6.78789 9.09998 6.58441 9.18426 6.43438 9.33429C6.28435 9.48432 6.20006 9.6878 6.20006 9.89998C6.20006 10.1121 6.28435 10.3156 6.43438 10.4657C6.58441 10.6157 6.78789 10.7 7.00006 10.7Z" fill="#FFE1EA"/>
</svg>
