<svg width="14" height="15" viewBox="0 0 14 15" fill="none" xmlns="http://www.w3.org/2000/svg">
<path d="M7.252 0.568026C7.17552 0.523396 7.08855 0.499878 7 0.499878C6.91145 0.499878 6.82448 0.523396 6.748 0.568026L1 3.92136L7 7.42136L13 3.92136L7.252 0.568026ZM13.5 4.78669L7.5 8.28669V14.2867L13.252 10.932C13.3275 10.888 13.3901 10.8249 13.4336 10.7491C13.4771 10.6733 13.5 10.5874 13.5 10.5V4.78669ZM6.5 14.2867V8.28669L0.5 4.78669V10.5C0.499974 10.5874 0.522859 10.6733 0.566374 10.7491C0.609888 10.8249 0.672511 10.888 0.748 10.932L6.5 14.2874V14.2867Z" fill="#FFE1EA"/>
</svg>
