<svg width="14" height="13" viewBox="0 0 14 13" fill="none" xmlns="http://www.w3.org/2000/svg">
<path d="M6.72201 12.0321L6.71801 12.0297L6.70281 12.0217C6.38712 11.8499 6.07709 11.6679 5.77321 11.476C5.0487 11.0202 4.35834 10.5122 3.70761 9.95605C2.23561 8.68645 0.599609 6.78165 0.599609 4.50005C0.59968 3.75562 0.830529 3.02952 1.26037 2.42172C1.69021 1.81393 2.2979 1.35433 2.99977 1.10622C3.70164 0.858111 4.46316 0.833687 5.17949 1.03631C5.89581 1.23894 6.53171 1.65865 6.99961 2.23765C7.46751 1.65865 8.10341 1.23894 8.81973 1.03631C9.53606 0.833687 10.2976 0.858111 10.9994 1.10622C11.7013 1.35433 12.309 1.81393 12.7388 2.42172C13.1687 3.02952 13.3995 3.75562 13.3996 4.50005C13.3996 6.78165 11.7644 8.68645 10.2916 9.95605C9.36708 10.746 8.36334 11.4382 7.29641 12.0217L7.28121 12.0297L7.27721 12.0321H7.27561C7.19061 12.0771 7.0959 12.1007 6.99971 12.1008C6.90352 12.101 6.80874 12.0776 6.72361 12.0329L6.72201 12.0321Z" fill="#FFE1EA"/>
</svg>
