<svg width="12" height="15" viewBox="0 0 12 15" fill="none" xmlns="http://www.w3.org/2000/svg">
<path fill-rule="evenodd" clip-rule="evenodd" d="M3.00039 3.5C3.00039 2.70435 3.31646 1.94129 3.87907 1.37868C4.44168 0.81607 5.20474 0.5 6.00039 0.5C6.79604 0.5 7.5591 0.81607 8.12171 1.37868C8.68432 1.94129 9.00039 2.70435 9.00039 3.5C9.00039 4.29565 8.68432 5.05871 8.12171 5.62132C7.5591 6.18393 6.79604 6.5 6.00039 6.5C5.20474 6.5 4.44168 6.18393 3.87907 5.62132C3.31646 5.05871 3.00039 4.29565 3.00039 3.5ZM0.501056 12.9033C0.523536 11.4596 1.11282 10.0827 2.1417 9.06972C3.17058 8.05674 4.55653 7.48897 6.00039 7.48897C7.44425 7.48897 8.8302 8.05674 9.85908 9.06972C10.888 10.0827 11.4772 11.4596 11.4997 12.9033C11.5015 13.0005 11.4748 13.0961 11.4231 13.1784C11.3713 13.2607 11.2967 13.3261 11.2084 13.3667C9.5745 14.1158 7.79783 14.5024 6.00039 14.5C4.14306 14.5 2.37839 14.0947 0.79239 13.3667C0.704047 13.3261 0.62944 13.2607 0.577698 13.1784C0.525955 13.0961 0.499322 13.0005 0.501056 12.9033Z" fill="#FFE1EA"/>
</svg>
