<svg width="15" height="15" viewBox="0 0 15 15" fill="none" xmlns="http://www.w3.org/2000/svg">
<path d="M12.2844 0.94317C12.2477 0.762324 12.1495 0.599734 12.0067 0.48295C11.8638 0.366165 11.6849 0.302368 11.5004 0.302368C11.3158 0.302368 11.137 0.366165 10.9941 0.48295C10.8512 0.599734 10.7531 0.762324 10.7164 0.94317L10.5244 1.89677C10.4935 2.05167 10.4175 2.19397 10.3059 2.30573C10.1942 2.41748 10.052 2.4937 9.89718 2.52477L8.94358 2.71517C8.76187 2.75111 8.59825 2.84899 8.48066 2.99211C8.36307 3.13524 8.29879 3.31473 8.29879 3.49997C8.29879 3.68521 8.36307 3.8647 8.48066 4.00783C8.59825 4.15095 8.76187 4.24883 8.94358 4.28477L9.89718 4.47517C10.0522 4.5061 10.1946 4.58225 10.3063 4.69402C10.4181 4.80579 10.4943 4.94816 10.5252 5.10317L10.7156 6.05677C10.7515 6.23849 10.8494 6.4021 10.9925 6.51969C11.1357 6.63728 11.3151 6.70156 11.5004 6.70156C11.6856 6.70156 11.8651 6.63728 12.0082 6.51969C12.1514 6.4021 12.2492 6.23849 12.2852 6.05677L12.4756 5.10317C12.5065 4.94816 12.5827 4.80579 12.6944 4.69402C12.8062 4.58225 12.9486 4.5061 13.1036 4.47517L14.0572 4.28477C14.2389 4.24883 14.4025 4.15095 14.5201 4.00783C14.6377 3.8647 14.702 3.68521 14.702 3.49997C14.702 3.31473 14.6377 3.13524 14.5201 2.99211C14.4025 2.84899 14.2389 2.75111 14.0572 2.71517L13.1036 2.52477C12.9486 2.49384 12.8062 2.41769 12.6944 2.30592C12.5827 2.19415 12.5065 2.05178 12.4756 1.89677L12.2852 0.94317H12.2844ZM5.05958 4.04717C5.0066 3.8877 4.90475 3.74896 4.76848 3.65063C4.6322 3.55231 4.46843 3.49939 4.30038 3.49939C4.13234 3.49939 3.96856 3.55231 3.83229 3.65063C3.69602 3.74896 3.59416 3.8877 3.54118 4.04717L2.99478 5.68797C2.95552 5.80592 2.88932 5.9131 2.80141 6.001C2.71351 6.0889 2.60633 6.15511 2.48838 6.19437L0.847584 6.74077C0.688111 6.79375 0.54937 6.8956 0.451046 7.03188C0.352721 7.16815 0.299805 7.33193 0.299805 7.49997C0.299805 7.66801 0.352721 7.83179 0.451046 7.96806C0.54937 8.10434 0.688111 8.20619 0.847584 8.25917L2.48838 8.80637C2.60625 8.84555 2.71337 8.91164 2.80127 8.99939C2.88916 9.08715 2.95542 9.19417 2.99478 9.31197L3.54118 10.9528C3.59416 11.1122 3.69602 11.251 3.83229 11.3493C3.96856 11.4476 4.13234 11.5005 4.30038 11.5005C4.46843 11.5005 4.6322 11.4476 4.76848 11.3493C4.90475 11.251 5.0066 11.1122 5.05958 10.9528L5.60598 9.31197C5.64524 9.19402 5.71145 9.08684 5.79935 8.99894C5.88726 8.91104 5.99443 8.84483 6.11238 8.80557L7.75318 8.25917C7.91266 8.20619 8.0514 8.10434 8.14972 7.96806C8.24805 7.83179 8.30096 7.66801 8.30096 7.49997C8.30096 7.33193 8.24805 7.16815 8.14972 7.03188C8.0514 6.8956 7.91266 6.79375 7.75318 6.74077L6.11238 6.19437C5.99443 6.15511 5.88726 6.0889 5.79935 6.001C5.71145 5.9131 5.64524 5.80592 5.60598 5.68797L5.06038 4.04717H5.05958ZM10.6596 10.4472C10.6066 10.2877 10.5048 10.149 10.3685 10.0506C10.2322 9.95231 10.0684 9.89939 9.90038 9.89939C9.73234 9.89939 9.56856 9.95231 9.43229 10.0506C9.29601 10.149 9.19416 10.2877 9.14118 10.4472L8.99398 10.888C8.9548 11.0058 8.88872 11.113 8.80096 11.2009C8.7132 11.2887 8.60618 11.355 8.48838 11.3944L8.04758 11.5408C7.88811 11.5938 7.74937 11.6956 7.65104 11.8319C7.55272 11.9682 7.4998 12.1319 7.4998 12.3C7.4998 12.468 7.55272 12.6318 7.65104 12.7681C7.74937 12.9043 7.88811 13.0062 8.04758 13.0592L8.48838 13.2056C8.60633 13.2448 8.71351 13.311 8.80141 13.3989C8.88932 13.4868 8.95552 13.594 8.99478 13.712L9.14118 14.1528C9.19416 14.3122 9.29601 14.451 9.43229 14.5493C9.56856 14.6476 9.73234 14.7005 9.90038 14.7005C10.0684 14.7005 10.2322 14.6476 10.3685 14.5493C10.5048 14.451 10.6066 14.3122 10.6596 14.1528L10.8068 13.712C10.846 13.5941 10.912 13.487 10.9998 13.3991C11.0876 13.3112 11.1946 13.2449 11.3124 13.2056L11.7532 13.0592C11.9127 13.0062 12.0514 12.9043 12.1497 12.7681C12.248 12.6318 12.301 12.468 12.301 12.3C12.301 12.1319 12.248 11.9682 12.1497 11.8319C12.0514 11.6956 11.9127 11.5938 11.7532 11.5408L11.3124 11.3936C11.1945 11.3544 11.0874 11.2883 10.9995 11.2005C10.9116 11.1128 10.8453 11.0058 10.806 10.888L10.6596 10.4472Z" fill="#F3B984"/>
</svg>
